<svg height="512pt" viewBox="-13 0 512 512" width="512pt" xmlns="http://www.w3.org/2000/svg"><path d="m264.449219 406.78125c118.308593 2.246094 210.933593 22.644531 210.933593 47.476562 0 26.332032-104.164062 47.679688-232.660156 47.679688s-232.660156-21.347656-232.660156-47.679688c0-24.671874 91.417969-44.964843 208.613281-47.429687" fill="#cbe558"/><path d="m263.226562 192.996094v239.582031c0 11.972656-9.707031 21.679687-21.679687 21.679687s-21.679687-9.707031-21.679687-21.679687v-239.582031" fill="#d1ddde"/><path d="m333.976562 102.464844c0 51.035156-41.371093 92.40625-92.402343 92.40625-51.035157 0-92.402344-41.371094-92.402344-92.40625 0-51.03125 41.367187-92.402344 92.402344-92.402344 51.03125 0 92.402343 41.371094 92.402343 92.402344zm0 0" fill="#f5737f"/><path d="m416.476562 412.230469c-37.804687-8.453125-88.367187-13.84375-143.160156-15.308594v-45.242187c0-12.921876-20.125-12.941407-20.125 0v80.898437c0 14.914063-23.234375 14.933594-23.234375 0v-228.308594c7.714844.875 15.519531.875 23.234375 0v65.902344c0 12.921875 20.125 12.941406 20.125 0v-70.28125c41.007813-13.390625 70.722656-52 70.722656-97.425781 0-56.5-45.964843-102.464844-102.464843-102.464844s-102.464844 45.964844-102.464844 102.464844c0 45.425781 29.710937 84.035156 70.722656 97.425781v197.09375c-54.289062 1.5625-104.304687 6.992187-141.628906 15.417969-45.894531 10.359375-68.203125 24.046875-68.203125 41.855468 0 18.8125 24.921875 33.066407 76.1875 43.574219 44.589844 9.136719 103.730469 14.167969 166.535156 14.167969 62.804688 0 121.949219-5.03125 166.535156-14.167969 51.265626-10.507812 76.1875-24.761719 76.1875-43.574219 0-17.90625-22.558593-31.652343-68.96875-42.027343zm-257.242187-309.765625c0-45.402344 36.9375-82.339844 82.339844-82.339844 45.402343 0 82.339843 36.9375 82.339843 82.339844s-36.9375 82.34375-82.339843 82.34375c-45.402344 0-82.339844-36.941406-82.339844-82.34375zm244.566406 375.9375c-43.136719 8.6875-100.34375 13.472656-161.078125 13.472656s-117.9375-4.785156-161.078125-13.472656c-50.179687-10.105469-61.292969-21.621094-61.519531-24.140625.203125-2.28125 9.949219-12.792969 53.851562-22.53125 35.816407-7.945313 83.773438-13.085938 135.855469-14.613281v15.460937c0 17.503906 14.238281 31.742187 31.742188 31.742187 17.5 0 31.742187-14.238281 31.742187-31.742187v-15.523437c52.601563 1.429687 101.117188 6.539062 137.421875 14.515624 44.503907 9.777344 54.375 20.386719 54.582031 22.683594-.226562 2.527344-11.339843 14.042969-61.519531 24.148438zm0 0"/><path d="m202.472656 64.988281c-4.652344-3.035156-10.886718-1.726562-13.925781 2.925781-6.710937 10.28125-10.257813 22.226563-10.257813 34.550782 0 9.03125 1.863282 17.757812 5.546876 25.941406 2.316406 5.152344 8.605468 7.367188 13.65625 4.871094 4.777343-2.359375 6.882812-8.269532 4.695312-13.128906-2.503906-5.570313-3.773438-11.515626-3.773438-17.683594 0-8.40625 2.414063-16.550782 6.984376-23.550782 3.039062-4.652343 1.726562-10.886718-2.925782-13.925781-4.652344-3.035156 4.652344 3.039063 0 0zm0 0"/><path d="m221.910156 142.210938c-5.46875 0-10.0625 4.59375-10.0625 10.0625 0 5.472656 4.59375 10.0625 10.0625 10.0625 5.3125 0 9.808594-4.324219 10.042969-9.621094.25-5.628906-4.398437-10.503906-10.042969-10.503906zm0 0"/><path d="m263.257812 300.632812c-5.46875 0-10.0625 4.597657-10.0625 10.0625-.003906 5.464844 4.597657 10.074219 10.0625 10.074219 5.308594 0 9.808594-4.339843 10.039063-9.632812.25-5.628907-4.394531-10.503907-10.039063-10.503907zm0 0"/></svg>