<?xml version="1.0" encoding="iso-8859-1"?>
<!-- Generator: Adobe Illustrator 19.0.0, SVG Export Plug-In . SVG Version: 6.00 Build 0)  -->
<svg version="1.1" id="Capa_1" xmlns="http://www.w3.org/2000/svg" xmlns:xlink="http://www.w3.org/1999/xlink" x="0px" y="0px"
	 viewBox="0 0 422.525 422.525" style="enable-background:new 0 0 422.525 422.525;" xml:space="preserve">
<path style="fill:#2ABBDD;" d="M210.721,417.28c-92.014-0.433-168.496-70.998-176.32-162.68l-0.2-2.72l2.16-1.64
	c3.795-3.397,8.572-5.498,13.64-6h0.72l2.48,0.6c8,3.08,10.84,16.32,13.76,34.68c1.76,11.12,3.4,21.6,7.44,25.12
	c1.855,1.764,4.283,2.801,6.84,2.92c1.056,0.005,2.103-0.199,3.08-0.6c10.16-4,17.8-28.64,21.04-67.16c3-36,24.8-42.16,45.92-48
	c12.84-3.52,26.12-7.16,35.04-17.6c16.4-19.04,8.4-28.64-3.88-43.04c-6.455-7.2-12.177-15.025-17.08-23.36
	c-6.96-12.28-9.16-22.32-6.64-29.88c1.171-3.757,3.771-6.903,7.24-8.76c10.216-2.707,20.66-4.461,31.2-5.24l5.92-0.44l-0.64,5.92
	c-0.423,3.598-0.637,7.217-0.64,10.84c0,49.2,72.2,129.56,75.32,132.96c4-4.44,40-44.56,61-85.6l3.36-6.64l4.8,5.68
	c4.692,5.621,9.034,11.525,13,17.68c2.36,4.52,11.44,25.84-12.56,42.84c-15.4,10.72-23.44,21.2-24.56,32
	c-1.04,9.88,3.56,20,14.04,31.32c13.907,16.212,19.295,38.061,14.52,58.88c-2.648,13.626-12.171,24.905-25.16,29.8
	c-16.32,5.84-69.68,28-71.16,68.76v3.76l-3.68,0.84C237.613,415.624,224.193,417.221,210.721,417.28L210.721,417.28z"/>
<path style="fill:#74FF78;" d="M81.362,307.44c-2.493-0.141-4.851-1.178-6.64-2.92c-3.44-3-5.08-10.12-7.36-25.04
	c-2.44-15.52-5-31.48-13.88-34.8c-1.088-0.405-2.24-0.608-3.4-0.6c-3.134,0.181-6.173,1.143-8.84,2.8l-7.36,4v-8.32
	c-0.778-75.782,46.586-143.72,117.96-169.2l8.68-3.04l-2.28,8.84c-1.88,7.48,0.44,17.12,6.96,28.64
	c4.92,8.334,10.655,16.159,17.12,23.36c12,14.36,20.24,24,4,42.92c-8.84,10.4-22.12,14.04-34.96,17.52c-21.16,5.8-43,12-46,48
	c-3.2,38.48-10.84,62.92-20.96,67l-0.88,0.36L81.362,307.44z"/>
<path style="fill:#D95633;" d="M273.482,208.76c-16.76-19.36-71.48-85.6-71.48-128.52c0-55.44,38.84-75.2,75.2-75.2
	s75.2,19.76,75.2,75.2c0,11.12-3.72,24.72-11.04,40.44c-17.04,36-48,73.64-60.44,88l-3.72,4.32L273.482,208.76z M277.202,43.16
	c-20.435,0-37,16.565-37,37s16.565,37,37,37s37-16.565,37-37C314.179,59.735,297.627,43.182,277.202,43.16z"/>
<path style="fill:#74FF78;" d="M254.721,404.64c4.32-38.52,55.28-59.6,70.8-65.12c13.119-4.931,22.737-16.32,25.4-30.08
	c4.736-20.945-0.774-42.894-14.84-59.12c-10.4-11.16-15-21.36-14-31.16c1.16-10.76,9.2-21.16,24.52-32
	c7.408-4.712,12.863-11.943,15.36-20.36l3.48-13.28l5.76,12.44c10.81,23.255,16.394,48.595,16.36,74.24
	c-0.375,78.176-51.691,146.966-126.52,169.6l-7.12,2.12L254.721,404.64z"/>
<g>
	<path style="fill:#322E63;" d="M363.801,141.84v-0.36v-0.2c-4.808-7.473-10.156-14.586-16-21.28
		c6.082-12.393,9.579-25.893,10.28-39.68c0-48.8-31.52-80.32-80.32-80.32c-41.12,0-69.92,22.44-77.96,58.72
		C99.441,65.05,23.214,151.539,29.544,251.9c6.33,100.361,92.819,176.588,193.18,170.258s176.588-92.819,170.258-193.18
		c-1.955-30.998-11.807-60.981-28.62-87.098L363.801,141.84z M277.201,9.84c33.96,0,70.28,18.44,70.28,70.28
		c-0.806,13.375-4.418,26.432-10.6,38.32v0.36c-16.84,36-48.68,74.08-59.52,86.6c-15-17.32-70.28-84-70.28-125.24
		c-0.16-51.72,36.16-70.16,70.12-70.16V9.84z M153.441,77.84c-2.2,8.72,0.28,19.52,7.44,32.28c5.07,8.565,10.979,16.605,17.64,24
		c12.4,14.6,17.52,20.64,4,36.52c-8,9.24-20,12.52-32.52,16c-21.72,5.96-46.32,12.68-49.64,52.44c-3.56,42.44-12,60.4-17.88,62.84
		c-0.6,0.24-1.96,0.8-4.6-1.48s-4.4-13.28-5.72-21.72c-2.68-16.88-5.44-34.32-17-38.68c-5.565-1.705-11.604-0.777-16.4,2.52
		c0-0.76,0-1.48,0-2.24c-0.048-72.937,45.912-137.973,114.68-162.28V77.84z M39.321,253.84c5.32-4,9.68-5.76,12.28-4.76
		c6.08,2.28,8.72,18.8,10.6,30.84c1.88,12.04,3.68,23.4,9.08,28c2.766,2.508,6.347,3.929,10.08,4c1.687,0.002,3.358-0.324,4.92-0.96
		c15.52-6.32,21.68-42.28,24-71.32c2.72-32.72,21.04-37.76,42.28-43.56c13.56-3.72,27.6-7.56,37.48-19.16
		c19.12-22.4,8.4-34.96-4-49.56c-6.251-6.955-11.798-14.512-16.56-22.56c-7.72-13.72-7.64-21.64-6.24-25.88
		c0.761-2.517,2.487-4.63,4.8-5.88c9.62-2.413,19.429-3.992,29.32-4.72c-0.434,3.785-0.661,7.59-0.68,11.4
		c0,51.44,73.48,132.8,76.6,136.24c1.878,2.055,5.066,2.198,7.12,0.32c0.111-0.102,0.218-0.208,0.32-0.32
		c2.2-2.44,40-44.24,61.6-86.68c4.657,5.68,8.946,11.652,12.84,17.88c1.92,3.76,9.4,21.56-11.4,36
		c-16.64,11.6-25.36,23.2-26.64,35.52c-1.2,11.36,4,22.88,15.32,35.2c12.912,14.962,17.945,35.17,13.56,54.44
		c-2.28,12.057-10.654,22.068-22.12,26.44c-17.4,6.2-72.84,29.44-74.48,73.24c-92.566,21.337-184.902-36.404-206.24-128.97
		c-1.884-8.172-3.167-16.471-3.84-24.83L39.321,253.84z M259.721,404.8c4-35.56,52-55.56,67.56-61.04
		c14.691-5.472,25.489-18.178,28.52-33.56c5.085-22.563-0.854-46.2-16-63.68c-9.4-10.04-13.56-18.96-12.68-27.28
		c0.96-9.24,8.28-18.48,22.4-28.32c8.271-5.286,14.373-13.361,17.2-22.76c39.856,86.227,2.264,188.438-83.963,228.294
		c-7.461,3.449-15.16,6.358-23.037,8.706V404.8z"/>
	<path style="fill:#322E63;" d="M277.202,122.2c23.152,0,41.92-18.768,41.92-41.92c0-23.152-18.768-41.92-41.92-41.92
		c-23.136,0-41.898,18.744-41.92,41.88C235.303,103.389,254.052,122.156,277.202,122.2L277.202,122.2z M277.202,48.4
		c17.673,0,32,14.327,32,32s-14.327,32-32,32s-32-14.327-32-32S259.528,48.4,277.202,48.4z"/>
</g>
<g>
</g>
<g>
</g>
<g>
</g>
<g>
</g>
<g>
</g>
<g>
</g>
<g>
</g>
<g>
</g>
<g>
</g>
<g>
</g>
<g>
</g>
<g>
</g>
<g>
</g>
<g>
</g>
<g>
</g>
</svg>
