<svg id="Capa_1" enable-background="new 0 0 512 512" height="512" viewBox="0 0 512 512" width="512" xmlns="http://www.w3.org/2000/svg"><path d="m481.095 512h-450.189c-17.069 0-30.906-13.836-30.906-30.905v-309.054c0-17.069 13.837-30.905 30.905-30.905h450.189c17.069 0 30.905 13.837 30.905 30.905v309.054c.001 17.069-13.836 30.905-30.904 30.905z" fill="#ff7043"/><path d="m481.095 141.135h-30.905c17.069 0 30.905 13.837 30.905 30.905v309.054c0 17.069-13.837 30.905-30.905 30.905h30.905c17.068.001 30.905-13.835 30.905-30.904v-309.054c0-17.069-13.837-30.906-30.905-30.906z" fill="#ff5722"/><path d="m256 479.035h-221.094c-2.209 0-4-1.791-4-4v-43.814h225.094z" fill="#eddbb9"/><path d="m477.095 479.035h-221.095v-47.814h225.095v43.814c0 2.209-1.791 4-4 4z" fill="#e0cfaf"/><path d="m256 448.129h-221.094c-2.209 0-4-1.791-4-4v-324.748c0-2.209 1.791-4 4-4h221.094z" fill="#fbf2df"/><path d="m477.095 448.129h-221.095v-332.748h221.095c2.209 0 4 1.791 4 4v324.748c0 2.209-1.791 4-4 4z" fill="#eddbb9"/><path d="m448.705 399.953-192.705 48.176v-332.748l190.764-47.691c2.525-.631 4.97 1.278 4.97 3.881v324.502c.001 1.835-1.249 3.435-3.029 3.88z" fill="#f2e5ce"/><path d="m215.998 399.681h-79.348c-4.142 0-7.5 3.358-7.5 7.5s3.358 7.5 7.5 7.5h79.348c4.142 0 7.5-3.358 7.5-7.5s-3.358-7.5-7.5-7.5z" fill="#78909c"/><path d="m242.452 61.029-40.506-15.209 14.695-39.136c2-5.326 7.939-8.023 13.266-6.023l21.218 7.967c5.326 2 8.023 7.939 6.023 13.266z" fill="#ff7043"/><path d="m141.885 352.231-57.866-21.727 111.223-296.22c.777-2.068 3.083-3.115 5.151-2.339l50.377 18.915c2.068.777 3.115 3.083 2.339 5.151z" fill="#80deea"/><path d="m225.581 41.402-112.629 299.965 28.933 10.864 111.223-296.221c.777-2.068-.271-4.374-2.339-5.151z" fill="#4dd0e1"/><path d="m84.019 330.503-2.376 66.682c.541 9.173 11.698 13.362 18.143 6.812l42.099-51.767z" fill="#78909c"/><path d="m112.952 341.367-31.309 55.819c.541 9.173 11.698 13.362 18.143 6.812l42.099-51.767z" fill="#607d8b"/><path d="m120.803 182.517h61.811v111.26h-61.811z" fill="#78909c" transform="matrix(.936 .352 -.352 .936 93.394 -38.13)"/><path d="m110.545 228.126h111.26v30.905h-111.26z" fill="#607d8b" transform="matrix(.352 -.936 .936 .352 -120.272 313.528)"/></svg>