<svg id="Layer_1" enable-background="new 0 0 511.904 511.904" height="512" viewBox="0 0 511.904 511.904" width="512" xmlns="http://www.w3.org/2000/svg"><g><path d="m376.976 336.927h-242.049l-60.35 174.977h362.75z" fill="#80ffaa"/><path d="m376.976 336.927h-121.024v174.977h181.375z" fill="#29cc95"/><path d="m255.953 0c-46.149 0-89.555 17.887-122.209 50.36-32.658 32.477-50.78 75.779-51.029 121.928-.271 50.513 21.444 98.511 59.58 131.686 38.339 33.352 72.375 68.206 101.163 103.594l12.492 15.357 12.504-15.366c30.489-37.481 64.091-71.96 99.872-102.48 38.681-32.994 60.865-81.047 60.865-131.84 0-95.524-77.714-173.239-173.238-173.239z" fill="#ff6a4d"/><path d="m255.953 0-.001 422.923 12.502-15.364c30.489-37.481 64.091-71.96 99.872-102.48 38.681-32.994 60.865-81.047 60.865-131.84 0-95.524-77.714-173.239-173.238-173.239z" fill="#e62e6b"/><circle cx="255.952" cy="173.24" fill="#fff" r="86.608"/><path d="m255.952 86.632v173.216c47.832 0 86.608-38.776 86.608-86.608 0-47.833-38.776-86.608-86.608-86.608z" fill="#fff5f5"/></g></svg>