<svg id="Icons" height="512" viewBox="0 0 60 60" width="512" xmlns="http://www.w3.org/2000/svg"><path d="m55 49h-5v5a4 4 0 0 1 -4 4h-41a4 4 0 0 1 -4-4v-42a4 4 0 0 1 4-4h41a4 4 0 0 1 4 4l8.88 32.04a4 4 0 0 1 -3.88 4.96z" fill="#bdc3c7"/><path d="m23.27 44.039-6.788 4.076a.992.992 0 0 0 -.482.849v.171a1 1 0 0 0 1.23.966l6.65-1.557 4.269-.03 6.617 1.58a1 1 0 0 0 1.234-.964v-.172a.99.99 0 0 0 -.474-.844l-6.787-4.165z" fill="#2980ba"/><path d="m22 30.543-12.564 8.57a1 1 0 0 0 -.436.826v1.161a1 1 0 0 0 1.292.956l11.708-3.574h8l11.708 3.574a1 1 0 0 0 1.292-.956v-1.1a1 1 0 0 0 -.434-.824l-12.566-8.633z" fill="#2980ba"/><path d="m55 49h-5v-37l8.88 32.04a4 4 0 0 1 -3.88 4.96z" fill="#95a5a5"/><path d="m50 12v4h-49v-4a4 4 0 0 1 4-4h41a4 4 0 0 1 4 4z" fill="#e64c3c"/><g fill="#3f5c6c"><path d="m10 12.836c-2.243 0-4-2.38-4-5.418s1.757-5.418 4-5.418 4 2.38 4 5.418a1 1 0 1 1 -2 0c0-2.018-1.054-3.418-2-3.418s-2 1.4-2 3.418 1.054 3.418 2 3.418a1 1 0 0 1 0 2z"/><path d="m20 12.836c-2.243 0-4-2.38-4-5.418s1.757-5.418 4-5.418 4 2.38 4 5.418a1 1 0 0 1 -2 0c0-2.018-1.054-3.418-2-3.418s-2 1.4-2 3.418 1.054 3.418 2 3.418a1 1 0 0 1 0 2z"/><path d="m30 12.836c-2.243 0-4-2.38-4-5.418s1.757-5.418 4-5.418 4 2.38 4 5.418a1 1 0 0 1 -2 0c0-2.018-1.054-3.418-2-3.418s-2 1.4-2 3.418 1.054 3.418 2 3.418a1 1 0 0 1 0 2z"/><path d="m40 12.836c-2.243 0-4-2.38-4-5.418s1.757-5.418 4-5.418 4 2.38 4 5.418a1 1 0 0 1 -2 0c0-2.018-1.054-3.418-2-3.418s-2 1.4-2 3.418 1.054 3.418 2 3.418a1 1 0 0 1 0 2z"/></g><path d="m26.616 53h-1.2a1 1 0 0 1 -.991-.868l-2.36-17.764a7.779 7.779 0 0 1 0-1.976l.4-7.841a4.7 4.7 0 0 1 .87-2.19 3.334 3.334 0 0 1 5.382 0 4.7 4.7 0 0 1 .871 2.19l.359 7.841a7.779 7.779 0 0 1 0 1.976l-2.339 17.762a1 1 0 0 1 -.992.87z" fill="#ecf0f1"/></svg>