<svg height="512pt" viewBox="-22 0 512 512" width="512pt" xmlns="http://www.w3.org/2000/svg"><path d="m305.847656 386.28125c35.824219 3.179688 72.414063 8.355469 106.554688 20.117188 14.890625 5.132812 40.9375 13.886718 45.785156 31.503906 10.003906 36.347656-77.554688 50.15625-97.730469 53.789062-73.878906 13.296875-151.621093 13.808594-225.957031 4.027344-29.402344-3.871094-59.476562-9.3125-87.128906-20.382812-12.773438-5.109376-34.433594-14.054688-37.039063-29.933594-3.253906-19.8125 25.8125-31.339844 39.785157-36.679688 35.863281-13.703125 75.257812-19.109375 113.277343-22.464844" fill="#cbe558"/><path d="m337.445312 46.863281c-59.785156-49.042969-147.601562-49.042969-207.390624 0-56.285157 46.171875-80.457032 132.25-59.472657 201.492188 25.3125 83.527343 98.015625 144.585937 163.167969 197.789062 63.265625-51.535156 133.261719-108.253906 160.464844-188.226562 24.148437-70.992188 1.847656-162.972657-56.769532-211.054688-59.785156-49.042969 58.617188 48.082031 0 0zm0 0" fill="#f5737f"/><path d="m347.25 178.535156c0 62.695313-50.824219 113.519532-113.519531 113.519532-62.695313 0-113.523438-50.824219-113.523438-113.519532 0-62.699218 50.828125-113.523437 113.523438-113.523437 62.695312 0 113.519531 50.824219 113.519531 113.523437zm0 0" fill="#fafafa"/><path d="m419.140625 398.085938c-24.324219-8.796876-56.242187-15.589844-93.125-19.871094 3.5625-3.609375 7.082031-7.265625 10.535156-10.976563 33.015625-35.488281 55-70.1875 67.203125-106.074219 26.222656-77.082031.464844-172.5625-59.914062-222.09375-30.714844-25.195312-69.8125-39.070312-110.089844-39.070312-.003906 0 0 0 0 0-40.277344 0-79.378906 13.875-110.089844 39.070312-28.59375 23.457032-50.613281 57.929688-62 97.070313-11.25 38.679687-11.507812 79.566406-.726562 115.136719 14.417968 47.585937 45.386718 89.496094 81.820312 126.957031-36.757812 4.28125-68.574218 11.050781-92.847656 19.820313-33.117188 11.957031-49.90625 26.933593-49.90625 44.515624 0 21.460938 24.636719 38.859376 73.226562 51.710938 43.199219 11.425781 100.46875 17.71875 161.25 17.71875s118.046876-6.292969 161.25-17.71875c48.589844-12.851562 73.226563-30.25 73.226563-51.710938 0-17.566406-16.757813-32.53125-49.8125-44.484374zm-338.117187-256.3125c10.257812-35.273438 29.941406-66.210938 55.421874-87.117188 27.121094-22.246094 61.675782-34.496094 97.304688-34.496094s70.183594 12.253906 97.300781 34.5c26.367188 21.628906 46.277344 54.191406 56.058594 91.6875 9.632813 36.910156 8.765625 75.382813-2.441406 108.328125-25.261719 74.257813-91.710938 129.621094-150.917969 178.425781-62.742188-51.78125-130.949219-113.179687-153.523438-187.667968-9.660156-31.878906-9.378906-68.691406.796876-103.660156 10.257812-35.273438-10.175782 34.96875 0 0zm309.5625 332.9375c-41.558594 11.015624-96.992188 17.097656-156.085938 17.128906-59.089844.027344-114.53125-5.996094-156.101562-16.96875-45.964844-12.132813-58.234376-25.941406-58.238282-32.191406-.007812-13.394532 44.878906-37.128907 141.152344-46.074219 20.078125 19.035156 41.164062 36.878906 61.625 53.714843 8.382812 6.898438 13.265625 6.882813 21.640625-.015624 19.910156-16.429688 41.609375-34.34375 62.515625-53.820313 96.628906 8.8125 141.691406 32.566406 141.699219 45.976563 0 6.246093-12.253907 20.070312-58.207031 32.25zm0 0"/><path d="m295.925781 285.367188c11.179688-6.523438 1.039063-23.945313-10.160156-17.414063-15.722656 9.171875-33.71875 14.019531-52.035156 14.019531-57.039063 0-103.441407-46.402344-103.441407-103.4375 0-57.039062 46.402344-103.441406 103.441407-103.441406 57.035156 0 103.4375 46.402344 103.4375 103.441406 0 11.644532-1.917969 23.070313-5.699219 33.957032-4.246094 12.226562 14.792969 18.859374 19.046875 6.617187 4.523437-13.023437 6.816406-26.675781 6.816406-40.578125 0-68.152344-55.449219-123.601562-123.601562-123.601562-68.152344 0-123.601563 55.449218-123.601563 123.601562 0 68.15625 55.449219 123.601562 123.601563 123.601562 21.882812 0 43.390625-5.796874 62.195312-16.765624zm0 0"/><path d="m321.667969 241.171875c-5.480469 0-10.089844 4.59375-10.089844 10.082031 0 5.480469 4.613281 10.082032 10.089844 10.078125 5.324219 0 9.824219-4.332031 10.0625-9.640625.25-5.640625-4.40625-10.519531-10.0625-10.519531zm0 0"/></svg>