<?xml version="1.0" encoding="iso-8859-1"?>
<!-- Generator: Adobe Illustrator 19.0.0, SVG Export Plug-In . SVG Version: 6.00 Build 0)  -->
<svg version="1.1" id="Capa_1" xmlns="http://www.w3.org/2000/svg" xmlns:xlink="http://www.w3.org/1999/xlink" x="0px" y="0px"
	 viewBox="0 0 512 512" style="enable-background:new 0 0 512 512;" xml:space="preserve">
<g>
	<g>
		<path d="M466.439,167.145c-5.388-3.031-12.009-2.905-17.301,0.32l-120.603,73.643l-137.469-74.1
			c-5.36-2.894-11.85-2.723-17.05,0.457L45.018,246.234c-5.097,3.111-8.202,8.647-8.202,14.618v234.025
			c0,6.193,3.345,11.901,8.745,14.932c2.603,1.461,5.497,2.192,8.379,2.192c3.099,0,6.187-0.833,8.927-2.506l120.603-73.649
			l137.464,74.1c5.36,2.894,11.844,2.717,17.05-0.457l128.999-78.769c5.097-3.111,8.202-8.647,8.202-14.618V182.077
			C475.184,175.884,471.839,170.176,466.439,167.145z M440.936,406.501L328.53,475.133l-137.469-74.1
			c-2.534-1.37-5.331-2.049-8.122-2.049c-3.094,0-6.187,0.845-8.921,2.511L71.064,464.362V270.464l112.412-68.643l137.464,74.106
			c5.36,2.894,11.844,2.711,17.05-0.457l102.948-62.867V406.501z"/>
	</g>
</g>
<g>
	<g>
		<rect x="165.815" y="182.083" width="34.247" height="234.025"/>
	</g>
</g>
<g>
	<g>
		<rect x="311.938" y="260.852" width="34.247" height="234.024"/>
	</g>
</g>
<g>
	<g>
		<path d="M256,125.574c-9.458,0-17.124,7.666-17.124,17.124v169.525c0,9.458,7.666,17.124,17.124,17.124
			c9.458,0,17.129-7.666,17.124-17.124V142.698C273.124,133.24,265.458,125.574,256,125.574z"/>
	</g>
</g>
<g>
	<g>
		<path d="M256,0c-44.065,0-79.911,35.846-79.911,79.911c0,44.065,35.846,79.911,79.911,79.911s79.911-35.846,79.911-79.911
			C335.911,35.846,300.065,0,256,0z M256,125.574c-25.178,0-45.663-20.486-45.663-45.663S230.822,34.247,256,34.247
			c25.183,0,45.663,20.486,45.663,45.663S281.183,125.574,256,125.574z"/>
	</g>
</g>
<g>
</g>
<g>
</g>
<g>
</g>
<g>
</g>
<g>
</g>
<g>
</g>
<g>
</g>
<g>
</g>
<g>
</g>
<g>
</g>
<g>
</g>
<g>
</g>
<g>
</g>
<g>
</g>
<g>
</g>
</svg>
