<?xml version="1.0" encoding="iso-8859-1"?>
<!-- Generator: Adobe Illustrator 19.0.0, SVG Export Plug-In . SVG Version: 6.00 Build 0)  -->
<svg version="1.1" id="Capa_1" xmlns="http://www.w3.org/2000/svg" xmlns:xlink="http://www.w3.org/1999/xlink" x="0px" y="0px"
	 viewBox="0 0 509.44 509.44" style="enable-background:new 0 0 509.44 509.44;" xml:space="preserve">
<circle style="fill:#65B1EF;" cx="265.816" cy="298.4" r="211.04"/>
<g>
	<path style="fill:#E9EFF4;" d="M163.256,475.488c-0.032,0.08-0.096,0.128-0.144,0.208c0.32,0.08,0.624,0.192,0.944,0.256
		L163.256,475.488z"/>
	<path style="fill:#E9EFF4;" d="M149.56,177.184c3.536-0.528,3.776-3.008,6.448-3.92c3.808-1.248,8.848,1.696,11.696,0.368
		C164.744,178.928,153.08,184.24,149.56,177.184z"/>
	<path style="fill:#E9EFF4;" d="M192.2,366.144c-0.048,1.856-1.136,3.488-2.096,5.056c-4.24,6.928-6.816,14.944-7.392,23.056
		c-0.576,7.776-0.224,17.376-7.008,21.2c-3.856,2.144-9.312,1.776-11.888,5.392c-0.816,1.104-1.2,2.48-1.568,3.776
		c-1.664,6.064-3.328,12.128-5.008,18.192c-2.144-0.192-4.352-0.432-6.496-0.672c2.528,0.816,4.304,4.24,2.768,6.592
		c-2.432-1.28-5.632,0.24-6.976,2.672c-1.28,2.432-1.088,5.392-0.384,8.064c2.192,7.92,8.976,14.32,16.96,16.224
		c-1.376,2.624-5.632,1.488-8.208-0.288c-18.48-12.496-32.432-31.536-38.784-52.912c-2.24-7.536-3.68-15.552-8.08-22.048
		c-3.68-5.488-9.216-9.488-12.896-14.976c-5.152-7.824-6.112-18.032-12.096-25.248c-3.344-4.112-8.496-9.168-5.552-13.552
		c1.2-1.808,3.728-3.536,2.72-5.44c-0.304-0.608-0.976-0.992-1.504-1.52c-2-2.144-0.624-5.536,0.384-8.304
		c1.664-4.816,1.664-9.984,0.944-15.136c-5.008-4.48-8.976-10.064-11.472-16.32c-1.488-3.824-3.44-8.592-7.552-8.64
		c-1.056-2.96-2.16-5.92-3.2-8.88c-0.384,1.056-1.424,1.728-2.576,1.856c3.168-48.352,22.672-92.24,53.008-126.24
		c0.672-0.272,1.344-0.656,2.016-1.024c7.2-4.208,12.928-10.512,19.888-15.104c1.424-0.96,3.056-1.856,4.816-1.68
		c1.712,0.144,3.344,1.904,2.72,3.536c-0.224,0.672-0.8,1.2-1.376,1.632c-8.16,6.928-17.072,12.992-26.576,18
		c-1.152,0.576-2.336,1.248-2.864,2.384c-0.96,1.952,0.672,4.4,2.72,5.104c2.048,0.72,4.352,0.288,6.448-0.192
		c-1.76,2.528-2.288,5.92-1.376,8.88c1.952,0.192,2.576-2.48,3.152-4.352c2.384-7.408,14.176-10.416,13.408-18.192
		c3.2,1.68,6.432-2.048,8.4-5.104c1.952-3.104,6.288-6.16,8.672-3.44c0.144,1.52,0.336,3.056,0.48,4.576
		c4.192-1.056,8.448-2.16,12.64-3.2c-2.384,1.68-3.2,5.248-1.808,7.824s4.816,3.856,7.536,2.816
		c-0.096,4.72-14.336,12.656-18.848,14.096l1.248,2.576c-1.904,0.64-8.544-1.92-11.168-1.568c-2.24,0.288-5.008,0.288-6.304,2.576
		c-0.192,0.288-1.008,4.304-0.432,3.968c2-1.152,4-2.288,5.968-3.44c0.624,1.616,0.768,3.44,0.432,5.2
		c2.432-0.24,4.96,0.288,7.12,1.568c-2.24,5.2-8.016,8.688-13.696,8.272c-0.048-1.712-0.144-3.44-0.192-5.152
		c-4.672-0.384-8.496,3.632-10.832,7.648c-2.384,4.064-4.192,8.688-8.112,11.264c-2.384,1.616-5.296,2.24-7.872,3.584
		c-2.528,1.392-4.864,4.016-4.336,6.832c0.24,1.328,1.104,2.576,1.056,3.968c-0.144,2.576-3.152,3.776-5.152,5.44
		c-3.44,2.864-4.288,8.112-7.968,10.656c-2.672,1.856-6.208,1.808-9.312,2.768c-3.104,0.96-6.208,4.064-4.96,7.072
		c-1.52,0.528-3.392-0.624-3.536-2.24c-5.488,10.8-9.104,22.528-10.576,34.56c2.72,1.904,5.488-2.432,6.016-5.728
		c0.576-3.296,3.424-7.6,6.112-5.632c-0.624,4.72-1.232,9.408-1.856,14.128c-0.144,0.912-0.24,1.856,0.192,2.672
		c0.528,1.008,1.664,1.424,2.528,2.144c2.432,2.096,2.112,5.824,2.256,9.024c0.144,3.92,1.44,7.728,3.488,11.072
		c-0.192-0.672-0.336-1.328-0.48-2c3.728,0.48,7.584-0.72,10.4-3.2c1.472-1.328,2.72-3.056,4.576-3.728
		c1.904-0.72,4.016-0.192,5.968,0.336c6.064,1.664,12.512,3.52,16.576,8.304c2.048,2.432,3.344,5.488,5.776,7.488
		c5.536,4.672,14.896,2.624,19.952,7.824c4.064,4.192,3.296,10.976,2.208,16.752c-2.768-1.52-6.496,2.288-4.864,5.008
		c1.472-1.616,3.2-3.344,5.344-3.344c2.192-0.048,4.112,2.96,2.48,4.336c3.808-4.864,13.168-2.864,14.656,3.184
		c5.344,0.384,10.736,0.752,16.096,1.184C176.104,357.808,192.52,358.272,192.2,366.144z"/>
	<path style="fill:#E9EFF4;" d="M159.672,145.312c-5.36,2.624-8.592-6.32-2.736-7.664c2.752-0.64,3.92-0.016,3.872-2.896
		c-0.08-3.504,3.184-6.928,12.56-5.072c0.912,1.888,1.184,4.08,0.736,6.112c-1.76,0.08-3.52,0.144-5.28,0.224
		c0.16,2.912-0.128,6.592-2.848,7.664c-2.432,0.96-5.584-0.832-7.616,0.816"/>
	<path style="fill:#E9EFF4;" d="M187.032,116.144c4.8-2.304,8.848-5.92,13.584-8.336c8.144-4.176,17.632-4.544,26.784-4.832
		c20.8-0.656,41.616-1.296,62.416-1.952c-4.816,2.64-9.648,5.296-14.464,7.936c-3.936,2.16-8.416,4.384-12.736,3.168
		c-0.096,3.472,3.072,6.704,6.544,6.672c-8.544,5.28-20.416-0.128-29.424,4.32c-3.776,1.856-6.832,5.376-10.992,6.032
		c-2.4,0.384-4.912-0.256-7.28,0.256c-4,0.88-6.528,4.672-9.472,7.488c-3.408,3.264-8.416,5.504-12.864,3.936
		s-6.768-8.176-3.2-11.264c1.728-1.536,4.224-1.776,6.304-2.848c2.064-1.056,3.712-3.904,2.144-5.632
		c-0.672-0.752-1.792-1.04-2.416-1.84c-0.672-0.864-0.608-2.112-1.152-3.072c-2.112-3.712-7.984,1.28-11.984-0.208"/>
	<path style="fill:#E9EFF4;" d="M250.2,133.712c2.816-0.656,5.264-2.32,7.888-3.52c2.624-1.2,5.76-1.92,8.336-0.64
		c0.768,1.92-1.44,3.664-3.376,4.352c-3.728,1.312-7.776,1.664-11.664,1.024"/>
	<path style="fill:#E9EFF4;" d="M420.296,154.704c-0.752,0.096-1.568,0.048-2.384-0.144c-3.584-0.768-6.304-3.536-9.36-5.536
		c-7.072-4.672-16.704-5.296-24.352-1.472c1.808-2.624,2.72-5.872,2.528-9.072l-1.104,0.384
		c-12.512-7.248-27.168-14.784-40.816-9.904c-3.152,1.152-6.016,2.864-9.216,3.968c-3.392,1.2-7.168,1.68-10.064,3.776
		c-2.96,2.096-4.528,6.736-2,9.264c2.144,2.144,5.584,1.568,8.592,1.856c2.96,0.288,6.352,3.248,4.736,5.776
		c-13.072,6.112-26.192,12.288-39.28,18.448c6.016,1.952,9.984,8.784,8.704,14.976c-4.384,0.768-8.64-1.904-13.088-2.192
		c-6.448-0.336-12.592,5.36-12.736,11.792c-0.192,6.448,5.728,12.416,12.176,12.304c4.816-0.048,9.552-2.96,14.224-1.728
		c0.192-4.384,3.2-8.112,6.288-11.264c6.016-6.016,14.608-11.472,22.624-8.512c2.624,0.96,4.864,2.72,7.072,4.48
		c4.832,3.824,9.648,7.68,14.464,11.536c1.52-1.568,3.056-3.152,4.576-4.672c2.624,2.768,5.248,5.536,7.936,8.352
		c1.344-0.912,2.72-1.76,4.048-2.672c0.96,2.48,1.968,4.912,2.912,7.392c0.384-2.72,0.72-5.392,1.04-8.064
		c3.152,0.096,6.496,0.192,9.36-1.248c2.864-1.392,4.96-4.816,3.76-7.776c-0.624-1.584-2.096-2.816-2.384-4.48
		c-0.624-3.344,4.144-5.632,7.248-4.112c3.056,1.472,4.592,4.96,5.872,8.16c0.72-3.248,1.376-6.448,2.096-9.696
		c3.008,7.824,7.312,15.184,12.656,21.616c-9.792-1.856-20.096-0.8-29.264,2.976c2.912,4.112,7.936,6.544,12.944,6.336
		c2.24-0.048,4.72-0.576,6.448,0.864c1.296,1.104,1.616,2.864,1.856,4.48c0.768,4.576,1.536,9.12,2.256,13.648
		c-5.152-4.24-12.608-3.76-19.328-3.904c-6.736-0.192-14.608-2.048-17.088-8.304c-2.672,3.008-3.856,7.312-3.104,11.312
		c-6.976-1.664-14.992-4.336-16.992-11.2c-5.44,2-12.224-1.472-13.712-7.056c-0.528-1.952-0.672-4.336-2.384-5.392
		c-1.056-0.624-2.384-0.528-3.632-0.384c-10.352,1.2-20.672,2.352-30.976,3.552c-5.632,0.672-11.456,1.344-16.416,4.112
		c-4.96,2.72-8.928,8.064-8.352,13.696c-9.504,5.632-17.552,13.808-22.992,23.408c-1.712,2.96-3.2,6.352-2.528,9.696
		c0.48,2.576,2.192,4.768,2.72,7.296c0.912,4.352-1.568,8.544-2.624,12.848c-2.96,12.224,6.32,23.728,14.912,32.976
		c4.064,4.288,8.736,8.976,14.656,9.2c3.68,0.144,7.152-1.488,10.592-2.816c9.84-3.872,20.528-5.648,31.072-5.216
		c-2.384,1.872,0.096,5.92,3.056,6.544s6.16-0.336,9.024,0.656c6.544,2.336,5.648,11.936,2.688,18.192
		c1.488-0.288,3.008-0.576,4.528-0.864c-0.816,2.096-1.616,4.208-2.432,6.256c8.976,1.136,12.368,12.928,10.272,21.76
		c-2.048,8.832-7.296,16.944-7.44,26.016c-0.048,4.96,1.488,9.792,3.008,14.512c3.824,11.984,7.648,23.952,11.472,35.984
		c10.688,1.28,16.848-12.32,26.768-16.576c3.728-1.616,8.112-1.968,11.024-4.736c2.816-2.672,1.904-8.928-1.728-8.928
		c4.912-0.528,9.12-5.008,9.248-9.984c0.048-1.392-0.144-2.768,0.048-4.16c0.336-1.952,1.568-3.68,2.768-5.344
		c7.584-10.896,12.496-23.344,17.408-35.664c1.28-3.296,2.576-6.544,3.856-9.84c4.864-12.272,9.68-24.496,14.544-36.768
		c1.904-4.816,3.808-9.6,5.728-14.416c-2.624,4.352-9.504,3.776-13.408,0.528c-3.968-3.248-6.016-8.16-9.12-12.224
		c-2.624-3.488-6.16-6.576-7.408-10.832c-0.72-2.432-0.576-5.056-1.008-7.584c-0.96-5.488-4.592-10.064-7.072-15.04
		s-3.776-11.408-0.288-15.744c10.032,17.52,19.168,35.552,27.424,54.016c0.912-2.864,3.008-5.344,5.68-6.736
		c1.952-1.056,4.144-1.488,6.208-2.336c5.44-2.384,9.216-8.16,9.2-14.08c-0.048-5.92-3.824-11.696-9.312-14.032
		c-2.72-1.152-5.824-1.52-8.4-3.104c-2.576-1.52-4.448-5.008-2.816-7.536c1.52-2.384,5.2-2.336,7.728-1.008
		c2.528,1.392,4.4,3.728,6.784,5.296c1.728,1.136,3.728,1.904,5.584,2.96c10.08,5.776,12.56,18.896,14.672,30.352
		c1.152,6.16,2.432,12.272,3.968,18.272c0.048-1.28,0.048-2.624,0.048-3.92C476.824,242.784,455.352,192.336,420.296,154.704z
		 M439.624,224.048c-1.392-0.096-2.672-1.008-3.776-1.856c-1.808-1.424-3.632-3.104-4.16-5.344
		c-0.624-2.672,0.672-5.728-0.768-8.112c-0.672-1.152-1.872-1.856-2.864-2.672c-2.624-2.096-4.544-5.104-5.264-8.352
		c-0.624-2.864,0.288-6.688,3.2-7.168c1.392-0.24,2.912,0.528,3.536,1.808l-1.952,1.056c3.296,0.384,4.832,5.344,2.288,7.488
		c-0.336,0.336-0.768,0.624-0.768,1.104c0,0.288,0.192,0.576,0.432,0.768c2.048,2.24,5.104,3.056,7.776,4.48
		c2.672,1.392,5.296,3.968,4.88,6.912c-0.864,0.336-1.664,0.624-2.528,0.96c-0.912,0.912-0.192,2.528,0.768,3.44
		s2.192,1.808,2.24,3.152C442.68,223.136,441.064,224.144,439.624,224.048z"/>
	<path style="fill:#E9EFF4;" d="M441,370.896l-3.44,2.448c1.216,4.224-1.2,9.184-5.28,10.832c-2.16,0.88-5.024,1.248-5.744,3.456
		c-0.608,1.872,0.848,3.776,1.04,5.744c0.32,3.248-2.72,5.68-4.912,8.096c-2.192,2.416-3.344,6.96-0.432,8.416
		c0.672,0.336,1.456,0.416,2.208,0.48c3.184,0.272,6.64,0.384,9.232-1.472c7.424-5.296,0.384-19.664,7.696-25.104
		c1.04-0.768,2.352-1.328,2.928-2.496C445.992,377.872,439.624,374.48,441,370.896z"/>
</g>
<path style="fill:#E24B4B;" d="M119.64,0C71.56,0,32.584,38.976,32.584,87.056s87.056,167.76,87.056,167.76
	s87.056-119.664,87.056-167.76S167.72,0,119.64,0z M119.64,124.464c-20.656,0-37.408-16.752-37.408-37.408
	s16.752-37.408,37.408-37.408s37.408,16.752,37.408,37.408S140.296,124.464,119.64,124.464z"/>
<g>
</g>
<g>
</g>
<g>
</g>
<g>
</g>
<g>
</g>
<g>
</g>
<g>
</g>
<g>
</g>
<g>
</g>
<g>
</g>
<g>
</g>
<g>
</g>
<g>
</g>
<g>
</g>
<g>
</g>
</svg>
