<svg id="Capa_1" enable-background="new 0 0 511.5 511.5" height="512" viewBox="0 0 511.5 511.5" width="512" xmlns="http://www.w3.org/2000/svg"><g><path d="m389.586 419.793h-59.659c-4.142 0-7.5 3.358-7.5 7.5v76.44c0 2.303.922 4.567 2.698 6.033 2.719 2.244 6.506 2.28 9.23.288l25.401-18.586 25.401 18.586c1.31.958 2.865 1.447 4.43 1.447 1.306 0 2.618-.34 3.798-1.033 2.374-1.393 3.701-4.065 3.701-6.817v-76.357c0-4.143-3.357-7.501-7.5-7.501z" fill="#e63850"/><path d="m401.928 0h-284.642c-8.284 0-15 6.716-15 15v412.293c0 8.284 6.716 15 15 15h284.643c24.625 0 44.658-20.033 44.658-44.658v-352.977c-.001-24.625-20.034-44.658-44.659-44.658z" fill="#fff5f5"/><path d="m401.928 0h-91.306v442.293h91.306c24.625 0 44.658-20.033 44.658-44.658v-352.977c0-24.625-20.033-44.658-44.658-44.658z" fill="#f2e8e4"/><path d="m117.286 0c-8.284 0-15 6.716-15 15v412.293c0 8.284 6.716 15 15 15h57.372v-442.293z" fill="#6d6d6d"/><path d="m371.586 76.719h-121.928c-8.284 0-15 6.716-15 15v74.521c0 8.284 6.716 15 15 15h121.929c8.284 0 15-6.716 15-15v-74.521c-.001-8.284-6.716-15-15.001-15z" fill="#fdbf00"/><path d="m371.586 76.719h-60.964v104.521h60.964c8.284 0 15-6.716 15-15v-74.521c0-8.284-6.715-15-15-15z" fill="#ff8700"/><g fill="#fdbf00"><path d="m124.658 95.479h-44.744c-8.284 0-15-6.716-15-15s6.716-15 15-15h44.744c8.284 0 15 6.716 15 15s-6.716 15-15 15z"/><path d="m124.658 165.813h-44.744c-8.284 0-15-6.716-15-15s6.716-15 15-15h44.744c8.284 0 15 6.716 15 15s-6.716 15-15 15z"/><path d="m124.658 306.48h-44.744c-8.284 0-15-6.716-15-15s6.716-15 15-15h44.744c8.284 0 15 6.716 15 15s-6.716 15-15 15z"/><path d="m124.658 236.146h-44.744c-8.284 0-15-6.716-15-15s6.716-15 15-15h44.744c8.284 0 15 6.716 15 15s-6.716 15-15 15z"/><path d="m124.658 376.813h-44.744c-8.284 0-15-6.716-15-15s6.716-15 15-15h44.744c8.284 0 15 6.716 15 15s-6.716 15-15 15z"/></g></g></svg>