<svg id="Capa_1" enable-background="new 0 0 512 512" height="512" viewBox="0 0 512 512" width="512" xmlns="http://www.w3.org/2000/svg"><g><path d="m176 353.182c-11.046 0-20-8.954-20-20v-115.371c0-11.046 8.954-20 20-20s20 8.954 20 20v115.371c0 11.046-8.954 20-20 20z"/><path d="m492 268.757c-11.046 0-20 8.954-20 20v94.899c0 7.624-4.236 14.479-11.056 17.888-.082.041-.163.083-.244.125l-115.856 59.926c-5.581 2.75-12.223 2.733-17.788-.05l-124.223-62.111c-16.803-8.4-36.863-8.4-53.666 0-.117.059-.235.119-.352.18l-80.02 42.005c-8.937 4.387-16.475.803-19.311-.949-2.85-1.764-9.484-6.95-9.484-17.014v-190.557c0-7.624 4.236-14.479 11.056-17.888.082-.041.163-.083.244-.125l115.856-59.926c5.581-2.75 12.223-2.733 17.788.05l75.084 37.542c9.877 4.939 21.894.935 26.833-8.944 4.939-9.88.936-21.893-8.944-26.833l-75.084-37.542c-16.803-8.4-36.863-8.4-53.666 0-.082.041-.163.083-.244.125l-115.89 59.942c-20.38 10.252-33.033 30.776-33.033 53.599v190.558c0 20.946 10.638 40.026 28.456 51.039 17.816 11.012 39.64 11.994 58.377 2.627.117-.059.235-.119.352-.18l80.016-42.003c5.571-2.729 12.192-2.705 17.744.072l124.223 62.111c8.401 4.2 17.617 6.301 26.833 6.301s18.432-2.101 26.833-6.301c.082-.041.163-.083.244-.125l115.89-59.943c20.379-10.253 33.032-30.776 33.032-53.599v-94.899c0-11.046-8.954-20-20-20z"/><path d="m356 398.944v-110.187c0-11.046-8.954-20-20-20s-20 8.954-20 20v110.187c0 11.046 8.954 20 20 20s20-8.954 20-20z"/><circle cx="412" cy="108.377" r="20"/><path d="m412 8.377c-55.141 0-100 44.86-100 100 0 30.794 16.613 72.234 49.38 123.169 11.162 17.353 30.085 27.712 50.62 27.712s39.458-10.36 50.62-27.712c32.767-50.936 49.38-92.376 49.38-123.17 0-55.139-44.859-99.999-100-99.999zm16.979 201.53c-3.823 5.943-10.012 9.352-16.979 9.352s-13.156-3.409-16.979-9.353c-27.743-43.125-43.021-79.182-43.021-101.529 0-33.084 26.916-60 60-60s60 26.916 60 60c0 22.347-15.278 58.404-43.021 101.53z"/></g></svg>