<svg id="Capa_1" enable-background="new 0 0 512 512" height="512" viewBox="0 0 512 512" width="512" xmlns="http://www.w3.org/2000/svg"><g><path d="m256 414.5v90c59.923 0 108.5-20.147 108.5-45s-48.577-45-108.5-45z" fill="#42c967"/><path d="m334.5 459.5c0-24.853-35.146-45-78.5-45-59.923 0-108.5 20.147-108.5 45s48.577 45 108.5 45c43.354 0 78.5-20.147 78.5-45z" fill="#78d280"/><path d="m256 7.5v467c5.019 0 9.45-2.474 12.173-6.259l130.861-182.179c20.745-28.878 32.966-64.291 32.966-102.562 0-97.202-78.798-176-176-176z" fill="#ff0f04"/><path d="m266.098 468.241 108.555-182.179c17.209-28.878 27.347-64.291 27.347-102.562 0-97.202-65.366-176-146-176-97.202 0-176 78.798-176 176 0 38.271 12.221 73.684 32.966 102.562l130.861 182.179c2.723 3.785 7.155 6.259 12.173 6.259 4.163 0 7.839-2.474 10.098-6.259z" fill="#ff362d"/><path d="m256 75v217c59.923 0 108.5-48.577 108.5-108.5s-48.577-108.5-108.5-108.5z" fill="#baf7ff"/><path d="m334.5 183.5c0-59.923-35.146-108.5-78.5-108.5-59.923 0-108.5 48.577-108.5 108.5s48.577 108.5 108.5 108.5c43.354 0 78.5-48.577 78.5-108.5z" fill="#fff"/><path d="m256 67.5c-63.962 0-116 52.038-116 116s52.038 116 116 116 116-52.038 116-116-52.038-116-116-116zm0 217c-55.691 0-101-45.309-101-101s45.309-101 101-101 101 45.309 101 101-45.309 101-101 101z"/><path d="m439.5 183.5c0-101.182-82.318-183.5-183.5-183.5s-183.5 82.318-183.5 183.5c0 38.653 11.887 75.631 34.375 106.938l130.864 182.184c4.225 5.872 11.052 9.378 18.261 9.378s14.036-3.506 18.265-9.383l32.471-45.206c29.826 6.872 50.264 19.781 50.264 32.089 0 17.737-41.479 37.5-101 37.5s-101-19.763-101-37.5c0-8.442 9.499-17.345 26.06-24.428 3.808-1.629 5.575-6.037 3.947-9.845-1.629-3.808-6.037-5.575-9.845-3.947-22.675 9.697-35.162 23.271-35.162 38.22 0 15.25 12.929 29.011 36.406 38.748 21.383 8.868 49.65 13.752 79.594 13.752s58.211-4.884 79.594-13.752c23.477-9.737 36.406-23.498 36.406-38.748 0-19.471-20.64-35.996-55.825-45.229l88.951-123.833c22.487-31.307 34.374-68.285 34.374-106.938zm-177.415 280.361c-1.435 1.995-3.653 3.139-6.085 3.139s-4.65-1.144-6.082-3.134l-130.861-182.179c-20.645-28.741-31.557-62.693-31.557-98.187 0-92.911 75.589-168.5 168.5-168.5s168.5 75.589 168.5 168.5c0 35.494-10.912 69.446-31.557 98.187z"/></g></svg>